# gerado por ferramentas/gerar_malhas.js — quadro-mesa
o quadro-mesa
v -0.050000 0.003119 -0.014672
v 0.050000 0.003119 -0.014672
v 0.050000 -0.003119 0.014672
v -0.050000 0.003119 -0.014672
v 0.050000 -0.003119 0.014672
v -0.050000 -0.003119 0.014672
v -0.050000 0.149841 0.016515
v -0.050000 0.143603 0.045859
v 0.050000 0.143603 0.045859
v -0.050000 0.149841 0.016515
v 0.050000 0.143603 0.045859
v 0.050000 0.149841 0.016515
v -0.050000 0.003119 -0.014672
v -0.050000 0.149841 0.016515
v 0.050000 0.149841 0.016515
v -0.050000 0.003119 -0.014672
v 0.050000 0.149841 0.016515
v 0.050000 0.003119 -0.014672
v -0.050000 -0.003119 0.014672
v 0.050000 -0.003119 0.014672
v 0.050000 0.143603 0.045859
v -0.050000 -0.003119 0.014672
v 0.050000 0.143603 0.045859
v -0.050000 0.143603 0.045859
v -0.050000 0.003119 -0.014672
v -0.050000 -0.003119 0.014672
v -0.050000 0.143603 0.045859
v -0.050000 0.003119 -0.014672
v -0.050000 0.143603 0.045859
v -0.050000 0.149841 0.016515
v 0.050000 0.003119 -0.014672
v 0.050000 0.149841 0.016515
v 0.050000 0.143603 0.045859
v 0.050000 0.003119 -0.014672
v 0.050000 0.143603 0.045859
v 0.050000 -0.003119 0.014672
f 1 2 3
f 4 5 6
f 7 8 9
f 10 11 12
f 13 14 15
f 16 17 18
f 19 20 21
f 22 23 24
f 25 26 27
f 28 29 30
f 31 32 33
f 34 35 36
